<?xml version="1.0" encoding="UTF-8" standalone="no"?>
<!-- Created with Inkscape (http://www.inkscape.org/) -->

<svg
   xmlns:dc="http://purl.org/dc/elements/1.1/"
   xmlns:cc="http://creativecommons.org/ns#"
   xmlns:rdf="http://www.w3.org/1999/02/22-rdf-syntax-ns#"
   xmlns:svg="http://www.w3.org/2000/svg"
   xmlns="http://www.w3.org/2000/svg"
   xmlns:sodipodi="http://sodipodi.sourceforge.net/DTD/sodipodi-0.dtd"
   xmlns:inkscape="http://www.inkscape.org/namespaces/inkscape"
   version="1.1"
   id="svg2"
   xml:space="preserve"
   width="768.66669"
   height="384.66666"
   viewBox="0 0 768.66669 384.66666"
   sodipodi:docname="patterns.svg"
   inkscape:version="0.92.5 (2060ec1f9f, 2020-04-08)"><metadata
     id="metadata8"><rdf:RDF><cc:Work
         rdf:about=""><dc:format>image/svg+xml</dc:format><dc:type
           rdf:resource="http://purl.org/dc/dcmitype/StillImage" /><dc:title></dc:title></cc:Work></rdf:RDF></metadata><defs
     id="defs6"><clipPath
       clipPathUnits="userSpaceOnUse"
       id="clipPath16"><path
         d="M 0,0 H 141.73 V 141.73 H 0 Z"
         id="path14"
         inkscape:connector-curvature="0" /></clipPath><pattern
       patternTransform="matrix(10,0,0,10,-717,2163)"
       patternUnits="userSpaceOnUse"
       x="0"
       y="0"
       width="14.1732"
       height="14.1732"
       id="pattern30"><g
         transform="scale(0.1)"
         id="g28"><g
           id="g26"><g
             clip-path="url(#clipPath16)"
             id="g24"><path
               d="m -70.8672,0 141.7344,0 0,70.8672 -141.7344,0 0,-70.8672 z"
               style="fill:none;stroke:#000000;stroke-opacity:1;stroke-width:5;stroke-linecap:round;stroke-linejoin:round;stroke-miterlimit:10;stroke-dasharray:none"
               id="path18" /><path
               d="m 70.8672,0 141.7308,0 0,70.8672 -141.7308,0 0,-70.8672 z"
               style="fill:none;stroke:#000000;stroke-opacity:1;stroke-width:5;stroke-linecap:round;stroke-linejoin:round;stroke-miterlimit:10;stroke-dasharray:none"
               id="path20" /><path
               d="m 0,70.8672 141.73,0 0,70.8628 -141.73,0 0,-70.8628 z"
               style="fill:none;stroke:#000000;stroke-opacity:1;stroke-width:5;stroke-linecap:round;stroke-linejoin:round;stroke-miterlimit:10;stroke-dasharray:none"
               id="path22" /></g></g></g></pattern><clipPath
       clipPathUnits="userSpaceOnUse"
       id="clipPath38"><path
         d="M 0,0 H 141.73 V 141.73 H 0 Z"
         id="path36"
         inkscape:connector-curvature="0" /></clipPath><pattern
       patternTransform="matrix(10,0,0,10,-717,2163)"
       patternUnits="userSpaceOnUse"
       x="0"
       y="0"
       width="14.1732"
       height="14.1732"
       id="pattern50"><g
         transform="scale(0.1)"
         id="g48"><g
           id="g46"><g
             clip-path="url(#clipPath38)"
             id="g44"><path
               d="m 0,0 141.73,0 0,70.8672 L 0,70.8672 0,0 Z"
               style="fill:none;stroke:#000000;stroke-opacity:1;stroke-width:5;stroke-linecap:round;stroke-linejoin:round;stroke-miterlimit:10;stroke-dasharray:none"
               id="path40" /><path
               d="m 0,70.8672 141.73,0 0,70.8628 -141.73,0 0,-70.8628 z"
               style="fill:none;stroke:#000000;stroke-opacity:1;stroke-width:5;stroke-linecap:round;stroke-linejoin:round;stroke-miterlimit:10;stroke-dasharray:none"
               id="path42" /></g></g></g></pattern><clipPath
       clipPathUnits="userSpaceOnUse"
       id="clipPath58"><path
         d="M 0,0 H 284 V 284 H 0 Z"
         id="path56"
         inkscape:connector-curvature="0" /></clipPath><clipPath
       clipPathUnits="userSpaceOnUse"
       id="clipPath62"><path
         d="M 0,0 H 283.465 V 283.465 H 0 Z"
         id="path60"
         inkscape:connector-curvature="0" /></clipPath><pattern
       patternTransform="matrix(10,0,0,10,-717,2163)"
       patternUnits="userSpaceOnUse"
       x="0"
       y="0"
       width="28.3465"
       height="28.3465"
       id="pattern92"><g
         transform="scale(0.1)"
         id="g90"><g
           id="g88"><g
             clip-path="url(#clipPath58)"
             id="g86"><g
               clip-path="url(#clipPath62)"
               id="g84"><path
                 d="m 0,0 141.73,0 0,70.8672 L 0,70.8672 0,0 Z"
                 style="fill:none;stroke:#000000;stroke-opacity:1;stroke-width:5;stroke-linecap:round;stroke-linejoin:round;stroke-miterlimit:10;stroke-dasharray:none"
                 id="path64" /><path
                 d="m 70.8672,70.8672 141.7308,0 0,70.8628 -141.7308,0 0,-70.8628 z"
                 style="fill:none;stroke:#000000;stroke-opacity:1;stroke-width:5;stroke-linecap:round;stroke-linejoin:round;stroke-miterlimit:10;stroke-dasharray:none"
                 id="path66" /><path
                 d="m 141.73,141.73 141.735,0 0,70.868 -141.735,0 0,-70.868 z"
                 style="fill:none;stroke:#000000;stroke-opacity:1;stroke-width:5;stroke-linecap:round;stroke-linejoin:round;stroke-miterlimit:10;stroke-dasharray:none"
                 id="path68" /><path
                 d="m 212.598,212.598 141.734,0 0,70.867 -141.734,0 0,-70.867 z"
                 style="fill:none;stroke:#000000;stroke-opacity:1;stroke-width:5;stroke-linecap:round;stroke-linejoin:round;stroke-miterlimit:10;stroke-dasharray:none"
                 id="path70" /><path
                 d="m 70.8672,70.8672 0,141.7308 -70.8672,0 0,-141.7308 70.8672,0 z"
                 style="fill:none;stroke:#000000;stroke-opacity:1;stroke-width:5;stroke-linecap:round;stroke-linejoin:round;stroke-miterlimit:10;stroke-dasharray:none"
                 id="path72" /><path
                 d="m 141.73,141.73 0,141.735 -70.8628,0 0,-141.735 70.8628,0 z"
                 style="fill:none;stroke:#000000;stroke-opacity:1;stroke-width:5;stroke-linecap:round;stroke-linejoin:round;stroke-miterlimit:10;stroke-dasharray:none"
                 id="path74" /><path
                 d="m 212.598,212.598 0,141.734 -70.868,0 0,-141.734 70.868,0 z"
                 style="fill:none;stroke:#000000;stroke-opacity:1;stroke-width:5;stroke-linecap:round;stroke-linejoin:round;stroke-miterlimit:10;stroke-dasharray:none"
                 id="path76" /><path
                 d="m 212.598,-70.8672 0,141.7344 -70.868,0 0,-141.7344 70.868,0 z"
                 style="fill:none;stroke:#000000;stroke-opacity:1;stroke-width:5;stroke-linecap:round;stroke-linejoin:round;stroke-miterlimit:10;stroke-dasharray:none"
                 id="path78" /><path
                 d="m 283.465,0 0,141.73 -70.867,0 0,-141.73 70.867,0 z"
                 style="fill:none;stroke:#000000;stroke-opacity:1;stroke-width:5;stroke-linecap:round;stroke-linejoin:round;stroke-miterlimit:10;stroke-dasharray:none"
                 id="path80" /><path
                 d="m -70.8672,212.598 141.7344,0 0,70.867 -141.7344,0 0,-70.867 z"
                 style="fill:none;stroke:#000000;stroke-opacity:1;stroke-width:5;stroke-linecap:round;stroke-linejoin:round;stroke-miterlimit:10;stroke-dasharray:none"
                 id="path82" /></g></g></g></g></pattern><clipPath
       clipPathUnits="userSpaceOnUse"
       id="clipPath100"><path
         d="M 0,0 H 284 V 284 H 0 Z"
         id="path98"
         inkscape:connector-curvature="0" /></clipPath><clipPath
       clipPathUnits="userSpaceOnUse"
       id="clipPath104"><path
         d="M 0,0 H 283.465 V 283.465 H 0 Z"
         id="path102"
         inkscape:connector-curvature="0" /></clipPath><pattern
       patternTransform="matrix(10,0,0,10,-717,2163)"
       patternUnits="userSpaceOnUse"
       x="0"
       y="0"
       width="28.3465"
       height="28.3465"
       id="pattern130"><g
         transform="scale(0.1)"
         id="g128"><g
           id="g126"><g
             clip-path="url(#clipPath100)"
             id="g124"><g
               clip-path="url(#clipPath104)"
               id="g122"><path
                 d="m 0,0 141.73,0 0,70.8672 L 0,70.8672 0,0 Z"
                 style="fill:none;stroke:#000000;stroke-opacity:1;stroke-width:5;stroke-linecap:round;stroke-linejoin:round;stroke-miterlimit:10;stroke-dasharray:none"
                 id="path106" /><path
                 d="m 0,70.8672 141.73,0 0,70.8628 -141.73,0 0,-70.8628 z"
                 style="fill:none;stroke:#000000;stroke-opacity:1;stroke-width:5;stroke-linecap:round;stroke-linejoin:round;stroke-miterlimit:10;stroke-dasharray:none"
                 id="path108" /><path
                 d="m 212.598,0 0,141.73 -70.868,0 0,-141.73 70.868,0 z"
                 style="fill:none;stroke:#000000;stroke-opacity:1;stroke-width:5;stroke-linecap:round;stroke-linejoin:round;stroke-miterlimit:10;stroke-dasharray:none"
                 id="path110" /><path
                 d="m 283.465,0 0,141.73 -70.867,0 0,-141.73 70.867,0 z"
                 style="fill:none;stroke:#000000;stroke-opacity:1;stroke-width:5;stroke-linecap:round;stroke-linejoin:round;stroke-miterlimit:10;stroke-dasharray:none"
                 id="path112" /><path
                 d="m 70.8672,141.73 0,141.735 -70.8672,0 0,-141.735 70.8672,0 z"
                 style="fill:none;stroke:#000000;stroke-opacity:1;stroke-width:5;stroke-linecap:round;stroke-linejoin:round;stroke-miterlimit:10;stroke-dasharray:none"
                 id="path114" /><path
                 d="m 141.73,141.73 0,141.735 -70.8628,0 0,-141.735 70.8628,0 z"
                 style="fill:none;stroke:#000000;stroke-opacity:1;stroke-width:5;stroke-linecap:round;stroke-linejoin:round;stroke-miterlimit:10;stroke-dasharray:none"
                 id="path116" /><path
                 d="m 141.73,141.73 141.735,0 0,70.868 -141.735,0 0,-70.868 z"
                 style="fill:none;stroke:#000000;stroke-opacity:1;stroke-width:5;stroke-linecap:round;stroke-linejoin:round;stroke-miterlimit:10;stroke-dasharray:none"
                 id="path118" /><path
                 d="m 141.73,212.598 141.735,0 0,70.867 -141.735,0 0,-70.867 z"
                 style="fill:none;stroke:#000000;stroke-opacity:1;stroke-width:5;stroke-linecap:round;stroke-linejoin:round;stroke-miterlimit:10;stroke-dasharray:none"
                 id="path120" /></g></g></g></g></pattern><clipPath
       clipPathUnits="userSpaceOnUse"
       id="clipPath138"><path
         d="M 0,0 H 145 V 216 H 0 Z"
         id="path136"
         inkscape:connector-curvature="0" /></clipPath><clipPath
       clipPathUnits="userSpaceOnUse"
       id="clipPath142"><path
         d="M 0,0 H 283.465 V 283.465 H 0 Z"
         id="path140"
         inkscape:connector-curvature="0" /></clipPath><pattern
       patternTransform="matrix(10,0,0,10,-717,2163)"
       patternUnits="userSpaceOnUse"
       x="0"
       y="0"
       width="14.4232"
       height="21.5098"
       id="pattern158"><g
         transform="scale(0.1)"
         id="g156"><g
           id="g154"><g
             clip-path="url(#clipPath138)"
             id="g152"><g
               clip-path="url(#clipPath142)"
               id="g150"><path
                 d="m 70.8672,0 0,141.73 L 0,141.73 0,0 70.8672,0 Z"
                 style="fill:none;stroke:#000000;stroke-opacity:1;stroke-width:5;stroke-linecap:round;stroke-linejoin:round;stroke-miterlimit:10;stroke-dasharray:none"
                 id="path144" /><path
                 d="m 141.73,0 0,141.73 -70.8628,0 0,-141.73 70.8628,0 z"
                 style="fill:none;stroke:#000000;stroke-opacity:1;stroke-width:5;stroke-linecap:round;stroke-linejoin:round;stroke-miterlimit:10;stroke-dasharray:none"
                 id="path146" /><path
                 d="m 0,141.73 141.73,0 0,70.868 -141.73,0 0,-70.868 z"
                 style="fill:none;stroke:#000000;stroke-opacity:1;stroke-width:5;stroke-linecap:round;stroke-linejoin:round;stroke-miterlimit:10;stroke-dasharray:none"
                 id="path148" /></g></g></g></g></pattern><clipPath
       clipPathUnits="userSpaceOnUse"
       id="clipPath166"><path
         d="M 0,0 H 284 V 216 H 0 Z"
         id="path164"
         inkscape:connector-curvature="0" /></clipPath><clipPath
       clipPathUnits="userSpaceOnUse"
       id="clipPath170"><path
         d="M 0,0 H 283.465 V 283.465 H 0 Z"
         id="path168"
         inkscape:connector-curvature="0" /></clipPath><pattern
       patternTransform="matrix(10,0,0,10,-717,2163)"
       patternUnits="userSpaceOnUse"
       x="0"
       y="0"
       width="28.3465"
       height="21.5098"
       id="pattern192"><g
         transform="scale(0.1)"
         id="g190"><g
           id="g188"><g
             clip-path="url(#clipPath166)"
             id="g186"><g
               clip-path="url(#clipPath170)"
               id="g184"><path
                 d="m 0,0 141.73,0 0,70.8672 L 0,70.8672 0,0 Z"
                 style="fill:none;stroke:#000000;stroke-opacity:1;stroke-width:5;stroke-linecap:round;stroke-linejoin:round;stroke-miterlimit:10;stroke-dasharray:none"
                 id="path172" /><path
                 d="m 212.598,0 0,141.73 -70.868,0 0,-141.73 70.868,0 z"
                 style="fill:none;stroke:#000000;stroke-opacity:1;stroke-width:5;stroke-linecap:round;stroke-linejoin:round;stroke-miterlimit:10;stroke-dasharray:none"
                 id="path174" /><path
                 d="m 283.465,0 0,141.73 -70.867,0 0,-141.73 70.867,0 z"
                 style="fill:none;stroke:#000000;stroke-opacity:1;stroke-width:5;stroke-linecap:round;stroke-linejoin:round;stroke-miterlimit:10;stroke-dasharray:none"
                 id="path176" /><path
                 d="m 70.8672,70.8672 0,141.7308 -70.8672,0 0,-141.7308 70.8672,0 z"
                 style="fill:none;stroke:#000000;stroke-opacity:1;stroke-width:5;stroke-linecap:round;stroke-linejoin:round;stroke-miterlimit:10;stroke-dasharray:none"
                 id="path178" /><path
                 d="m 141.73,70.8672 0,141.7308 -70.8628,0 0,-141.7308 70.8628,0 z"
                 style="fill:none;stroke:#000000;stroke-opacity:1;stroke-width:5;stroke-linecap:round;stroke-linejoin:round;stroke-miterlimit:10;stroke-dasharray:none"
                 id="path180" /><path
                 d="m 141.73,141.73 141.735,0 0,70.868 -141.735,0 0,-70.868 z"
                 style="fill:none;stroke:#000000;stroke-opacity:1;stroke-width:5;stroke-linecap:round;stroke-linejoin:round;stroke-miterlimit:10;stroke-dasharray:none"
                 id="path182" /></g></g></g></g></pattern><clipPath
       clipPathUnits="userSpaceOnUse"
       id="clipPath200"><path
         d="M 0,0 H 850.395 V 850.395 H 0 Z"
         id="path198"
         inkscape:connector-curvature="0" /></clipPath><clipPath
       clipPathUnits="userSpaceOnUse"
       id="clipPath204"><path
         d="M 1700.79,0 V 850.395 H 850.395 V 0 Z"
         id="path202"
         inkscape:connector-curvature="0" /></clipPath><pattern
       patternTransform="matrix(10,0,0,10,-717,2163)"
       patternUnits="userSpaceOnUse"
       x="0"
       y="0"
       width="170.079"
       height="85.0394"
       id="pattern280"><g
         transform="scale(0.1)"
         id="g278"><g
           id="g240"><g
             clip-path="url(#clipPath200)"
             id="g238"><path
               d="m 0,0 283.465,0 0,283.465 L 0,283.465 0,0 Z"
               style="fill:none;stroke:#000000;stroke-opacity:1;stroke-width:5;stroke-linecap:round;stroke-linejoin:round;stroke-miterlimit:10;stroke-dasharray:none"
               id="path206" /><path
               d="m 283.465,0 283.465,0 0,283.465 -283.465,0 0,-283.465 z"
               style="fill:none;stroke:#000000;stroke-opacity:1;stroke-width:5;stroke-linecap:round;stroke-linejoin:round;stroke-miterlimit:10;stroke-dasharray:none"
               id="path208" /><path
               d="m 566.93,0 283.465,0 0,141.73 -283.465,0 0,-141.73 z"
               style="fill:none;stroke:#000000;stroke-opacity:1;stroke-width:5;stroke-linecap:round;stroke-linejoin:round;stroke-miterlimit:10;stroke-dasharray:none"
               id="path210" /><path
               d="m 566.93,141.73 141.73,0 0,141.735 -141.73,0 0,-141.735 z"
               style="fill:none;stroke:#000000;stroke-opacity:1;stroke-width:5;stroke-linecap:round;stroke-linejoin:round;stroke-miterlimit:10;stroke-dasharray:none"
               id="path212" /><path
               d="m 708.66,141.73 141.735,0 0,141.735 -141.735,0 0,-141.735 z"
               style="fill:none;stroke:#000000;stroke-opacity:1;stroke-width:5;stroke-linecap:round;stroke-linejoin:round;stroke-miterlimit:10;stroke-dasharray:none"
               id="path214" /><path
               d="m 141.73,283.465 0,283.465 -141.73,0 0,-283.465 141.73,0 z"
               style="fill:none;stroke:#000000;stroke-opacity:1;stroke-width:5;stroke-linecap:round;stroke-linejoin:round;stroke-miterlimit:10;stroke-dasharray:none"
               id="path216" /><path
               d="m 141.73,283.465 141.735,0 0,141.73 -141.735,0 0,-141.73 z"
               style="fill:none;stroke:#000000;stroke-opacity:1;stroke-width:5;stroke-linecap:round;stroke-linejoin:round;stroke-miterlimit:10;stroke-dasharray:none"
               id="path218" /><path
               d="m 283.465,283.465 283.465,0 0,141.73 -283.465,0 0,-141.73 z"
               style="fill:none;stroke:#000000;stroke-opacity:1;stroke-width:5;stroke-linecap:round;stroke-linejoin:round;stroke-miterlimit:10;stroke-dasharray:none"
               id="path220" /><path
               d="m 425.195,425.195 141.735,0 0,141.735 -141.735,0 0,-141.735 z"
               style="fill:none;stroke:#000000;stroke-opacity:1;stroke-width:5;stroke-linecap:round;stroke-linejoin:round;stroke-miterlimit:10;stroke-dasharray:none"
               id="path222" /><path
               d="m 566.93,283.465 283.465,0 0,283.465 -283.465,0 0,-283.465 z"
               style="fill:none;stroke:#000000;stroke-opacity:1;stroke-width:5;stroke-linecap:round;stroke-linejoin:round;stroke-miterlimit:10;stroke-dasharray:none"
               id="path224" /><path
               d="m 0,566.93 141.73,0 0,141.73 -141.73,0 0,-141.73 z"
               style="fill:none;stroke:#000000;stroke-opacity:1;stroke-width:5;stroke-linecap:round;stroke-linejoin:round;stroke-miterlimit:10;stroke-dasharray:none"
               id="path226" /><path
               d="m 0,708.66 283.465,0 0,141.735 L 0,850.395 0,708.66 Z"
               style="fill:none;stroke:#000000;stroke-opacity:1;stroke-width:5;stroke-linecap:round;stroke-linejoin:round;stroke-miterlimit:10;stroke-dasharray:none"
               id="path228" /><path
               d="m 283.465,708.66 141.73,0 0,141.735 -141.73,0 0,-141.735 z"
               style="fill:none;stroke:#000000;stroke-opacity:1;stroke-width:5;stroke-linecap:round;stroke-linejoin:round;stroke-miterlimit:10;stroke-dasharray:none"
               id="path230" /><path
               d="m 425.195,566.93 283.465,0 0,283.465 -283.465,0 0,-283.465 z"
               style="fill:none;stroke:#000000;stroke-opacity:1;stroke-width:5;stroke-linecap:round;stroke-linejoin:round;stroke-miterlimit:10;stroke-dasharray:none"
               id="path232" /><path
               d="m 850.395,566.93 0,283.465 -141.735,0 0,-283.465 141.735,0 z"
               style="fill:none;stroke:#000000;stroke-opacity:1;stroke-width:5;stroke-linecap:round;stroke-linejoin:round;stroke-miterlimit:10;stroke-dasharray:none"
               id="path234" /><path
               d="m 141.73,425.195 283.465,0 0,283.465 -283.465,0 0,-283.465 z"
               style="fill:none;stroke:#000000;stroke-opacity:1;stroke-width:5;stroke-linecap:round;stroke-linejoin:round;stroke-miterlimit:10;stroke-dasharray:none"
               id="path236" /></g></g><g
           id="g276"><g
             clip-path="url(#clipPath204)"
             id="g274"><path
               d="m 1700.79,0 0,283.465 -283.47,0 0,-283.465 283.47,0 z"
               style="fill:none;stroke:#000000;stroke-opacity:1;stroke-width:5;stroke-linecap:round;stroke-linejoin:round;stroke-miterlimit:10;stroke-dasharray:none"
               id="path242" /><path
               d="m 1700.79,283.465 0,283.465 -283.47,0 0,-283.465 283.47,0 z"
               style="fill:none;stroke:#000000;stroke-opacity:1;stroke-width:5;stroke-linecap:round;stroke-linejoin:round;stroke-miterlimit:10;stroke-dasharray:none"
               id="path244" /><path
               d="m 1700.79,566.93 0,283.465 -141.74,0 0,-283.465 141.74,0 z"
               style="fill:none;stroke:#000000;stroke-opacity:1;stroke-width:5;stroke-linecap:round;stroke-linejoin:round;stroke-miterlimit:10;stroke-dasharray:none"
               id="path246" /><path
               d="m 1559.05,566.93 0,141.73 -141.73,0 0,-141.73 141.73,0 z"
               style="fill:none;stroke:#000000;stroke-opacity:1;stroke-width:5;stroke-linecap:round;stroke-linejoin:round;stroke-miterlimit:10;stroke-dasharray:none"
               id="path248" /><path
               d="m 1559.05,708.66 0,141.735 -141.73,0 0,-141.735 141.73,0 z"
               style="fill:none;stroke:#000000;stroke-opacity:1;stroke-width:5;stroke-linecap:round;stroke-linejoin:round;stroke-miterlimit:10;stroke-dasharray:none"
               id="path250" /><path
               d="m 1417.32,141.73 -283.46,0 0,-141.73 283.46,0 0,141.73 z"
               style="fill:none;stroke:#000000;stroke-opacity:1;stroke-width:5;stroke-linecap:round;stroke-linejoin:round;stroke-miterlimit:10;stroke-dasharray:none"
               id="path252" /><path
               d="m 1417.32,141.73 0,141.735 -141.73,0 0,-141.735 141.73,0 z"
               style="fill:none;stroke:#000000;stroke-opacity:1;stroke-width:5;stroke-linecap:round;stroke-linejoin:round;stroke-miterlimit:10;stroke-dasharray:none"
               id="path254" /><path
               d="m 1417.32,283.465 0,283.465 -141.73,0 0,-283.465 141.73,0 z"
               style="fill:none;stroke:#000000;stroke-opacity:1;stroke-width:5;stroke-linecap:round;stroke-linejoin:round;stroke-miterlimit:10;stroke-dasharray:none"
               id="path256" /><path
               d="m 1275.59,425.195 0,141.735 -141.73,0 0,-141.735 141.73,0 z"
               style="fill:none;stroke:#000000;stroke-opacity:1;stroke-width:5;stroke-linecap:round;stroke-linejoin:round;stroke-miterlimit:10;stroke-dasharray:none"
               id="path258" /><path
               d="m 1417.32,566.93 0,283.465 -283.46,0 0,-283.465 283.46,0 z"
               style="fill:none;stroke:#000000;stroke-opacity:1;stroke-width:5;stroke-linecap:round;stroke-linejoin:round;stroke-miterlimit:10;stroke-dasharray:none"
               id="path260" /><path
               d="m 1133.86,0 0,141.73 -141.735,0 0,-141.73 141.735,0 z"
               style="fill:none;stroke:#000000;stroke-opacity:1;stroke-width:5;stroke-linecap:round;stroke-linejoin:round;stroke-miterlimit:10;stroke-dasharray:none"
               id="path262" /><path
               d="m 992.125,0 0,283.465 -141.73,0 0,-283.465 141.73,0 z"
               style="fill:none;stroke:#000000;stroke-opacity:1;stroke-width:5;stroke-linecap:round;stroke-linejoin:round;stroke-miterlimit:10;stroke-dasharray:none"
               id="path264" /><path
               d="m 992.125,283.465 0,141.73 -141.73,0 0,-141.73 141.73,0 z"
               style="fill:none;stroke:#000000;stroke-opacity:1;stroke-width:5;stroke-linecap:round;stroke-linejoin:round;stroke-miterlimit:10;stroke-dasharray:none"
               id="path266" /><path
               d="m 1133.86,425.195 0,283.465 -283.465,0 0,-283.465 283.465,0 z"
               style="fill:none;stroke:#000000;stroke-opacity:1;stroke-width:5;stroke-linecap:round;stroke-linejoin:round;stroke-miterlimit:10;stroke-dasharray:none"
               id="path268" /><path
               d="m 1133.86,850.395 -283.465,0 0,-141.735 283.465,0 0,141.735 z"
               style="fill:none;stroke:#000000;stroke-opacity:1;stroke-width:5;stroke-linecap:round;stroke-linejoin:round;stroke-miterlimit:10;stroke-dasharray:none"
               id="path270" /><path
               d="m 1275.59,141.73 0,283.465 -283.465,0 0,-283.465 283.465,0 z"
               style="fill:none;stroke:#000000;stroke-opacity:1;stroke-width:5;stroke-linecap:round;stroke-linejoin:round;stroke-miterlimit:10;stroke-dasharray:none"
               id="path272" /></g></g></g></pattern></defs><sodipodi:namedview
     pagecolor="#ffffff"
     bordercolor="#666666"
     borderopacity="1"
     objecttolerance="10"
     gridtolerance="10"
     guidetolerance="10"
     inkscape:pageopacity="0"
     inkscape:pageshadow="2"
     inkscape:window-width="634"
     inkscape:window-height="1015"
     id="namedview4"
     showgrid="false"
     inkscape:zoom="0.61351821"
     inkscape:cx="192.81499"
     inkscape:cy="192.33333"
     inkscape:window-x="1280"
     inkscape:window-y="28"
     inkscape:window-maximized="0"
     inkscape:current-layer="g10" /><g
     id="g10"
     inkscape:groupmode="layer"
     inkscape:label="test"
     transform="matrix(1.3333333,0,0,-1.3333333,0,384.66667)"><g
       id="g12"
       transform="scale(0.1)"><path
         d="m 1442.5,2162.5 c 0,397.64 -322.36,720 -720,720 -397.645,0 -720,-322.36 -720,-720 0,-397.64 322.355,-720 720,-720 397.64,0 720,322.36 720,720"
         style="fill:url(#pattern30);fill-opacity:1;fill-rule:nonzero;stroke:none"
         id="path32"
         inkscape:connector-curvature="0" /><path
         d="m 1442.5,2162.5 c 0,397.64 -322.36,720 -720,720 -397.645,0 -720,-322.36 -720,-720 0,-397.64 322.355,-720 720,-720 397.64,0 720,322.36 720,720 z"
         style="fill:none;stroke:#000000;stroke-width:5;stroke-linecap:round;stroke-linejoin:round;stroke-miterlimit:10;stroke-dasharray:none;stroke-opacity:1"
         id="path34"
         inkscape:connector-curvature="0" /><path
         d="m 2882.5,2162.5 c 0,397.64 -322.36,720 -720,720 -397.64,0 -720,-322.36 -720,-720 0,-397.64 322.36,-720 720,-720 397.64,0 720,322.36 720,720"
         style="fill:url(#pattern50);fill-opacity:1;fill-rule:nonzero;stroke:none"
         id="path52"
         inkscape:connector-curvature="0" /><path
         d="m 2882.5,2162.5 c 0,397.64 -322.36,720 -720,720 -397.64,0 -720,-322.36 -720,-720 0,-397.64 322.36,-720 720,-720 397.64,0 720,322.36 720,720 z"
         style="fill:none;stroke:#000000;stroke-width:5;stroke-linecap:round;stroke-linejoin:round;stroke-miterlimit:10;stroke-dasharray:none;stroke-opacity:1"
         id="path54"
         inkscape:connector-curvature="0" /><path
         d="m 4322.5,2162.5 c 0,397.64 -322.36,720 -720,720 -397.64,0 -720,-322.36 -720,-720 0,-397.64 322.36,-720 720,-720 397.64,0 720,322.36 720,720"
         style="fill:url(#pattern92);fill-opacity:1;fill-rule:nonzero;stroke:none"
         id="path94"
         inkscape:connector-curvature="0" /><path
         d="m 4322.5,2162.5 c 0,397.64 -322.36,720 -720,720 -397.64,0 -720,-322.36 -720,-720 0,-397.64 322.36,-720 720,-720 397.64,0 720,322.36 720,720 z"
         style="fill:none;stroke:#000000;stroke-width:5;stroke-linecap:round;stroke-linejoin:round;stroke-miterlimit:10;stroke-dasharray:none;stroke-opacity:1"
         id="path96"
         inkscape:connector-curvature="0" /><path
         d="m 5762.5,2162.5 c 0,397.64 -322.36,720 -720,720 -397.64,0 -720,-322.36 -720,-720 0,-397.64 322.36,-720 720,-720 397.64,0 720,322.36 720,720"
         style="fill:url(#pattern130);fill-opacity:1;fill-rule:nonzero;stroke:none"
         id="path132"
         inkscape:connector-curvature="0" /><path
         d="m 5762.5,2162.5 c 0,397.64 -322.36,720 -720,720 -397.64,0 -720,-322.36 -720,-720 0,-397.64 322.36,-720 720,-720 397.64,0 720,322.36 720,720 z"
         style="fill:none;stroke:#000000;stroke-width:5;stroke-linecap:round;stroke-linejoin:round;stroke-miterlimit:10;stroke-dasharray:none;stroke-opacity:1"
         id="path134"
         inkscape:connector-curvature="0" /><path
         d="m 1442.5,722.5 c 0,397.64 -322.36,720 -720,720 -397.645,0 -720,-322.36 -720,-720 0,-397.645 322.355,-720 720,-720 397.64,0 720,322.355 720,720"
         style="fill:url(#pattern158);fill-opacity:1;fill-rule:nonzero;stroke:none"
         id="path160"
         inkscape:connector-curvature="0" /><path
         d="m 1442.5,722.5 c 0,397.64 -322.36,720 -720,720 -397.645,0 -720,-322.36 -720,-720 0,-397.645 322.355,-720 720,-720 397.64,0 720,322.355 720,720 z"
         style="fill:none;stroke:#000000;stroke-width:5;stroke-linecap:round;stroke-linejoin:round;stroke-miterlimit:10;stroke-dasharray:none;stroke-opacity:1"
         id="path162"
         inkscape:connector-curvature="0" /><path
         d="m 2882.5,722.5 c 0,397.64 -322.36,720 -720,720 -397.64,0 -720,-322.36 -720,-720 0,-397.645 322.36,-720 720,-720 397.64,0 720,322.355 720,720"
         style="fill:url(#pattern192);fill-opacity:1;fill-rule:nonzero;stroke:none"
         id="path194"
         inkscape:connector-curvature="0" /><path
         d="m 2882.5,722.5 c 0,397.64 -322.36,720 -720,720 -397.64,0 -720,-322.36 -720,-720 0,-397.645 322.36,-720 720,-720 397.64,0 720,322.355 720,720 z"
         style="fill:none;stroke:#000000;stroke-width:5;stroke-linecap:round;stroke-linejoin:round;stroke-miterlimit:10;stroke-dasharray:none;stroke-opacity:1"
         id="path196"
         inkscape:connector-curvature="0" /><path
         d="m 4322.5,722.5 c 0,397.64 -322.36,720 -720,720 -397.64,0 -720,-322.36 -720,-720 0,-397.645 322.36,-720 720,-720 397.64,0 720,322.355 720,720"
         style="fill:url(#pattern280);fill-opacity:1;fill-rule:nonzero;stroke:none"
         id="path282"
         inkscape:connector-curvature="0" /><path
         d="m 4322.5,722.5 c 0,397.64 -322.36,720 -720,720 -397.64,0 -720,-322.36 -720,-720 0,-397.645 322.36,-720 720,-720 397.64,0 720,322.355 720,720 z"
         style="fill:none;stroke:#000000;stroke-width:5;stroke-linecap:round;stroke-linejoin:round;stroke-miterlimit:10;stroke-dasharray:none;stroke-opacity:1"
         id="path284"
         inkscape:connector-curvature="0" /></g></g></svg>